<svg xmlns="http://www.w3.org/2000/svg" width="600" height="600" viewBox="0 0 400 400" role="img" aria-label="Plastic and steel furniture">
<rect width="400" height="400" fill="#EDE3D4"/>
<rect x="0" y="300" width="400" height="100" rx="0" fill="#FAF6EF"/><ellipse cx="200" cy="306" rx="136" ry="7" fill="#3E2A1E" opacity="0.10"/><g transform="translate(0,68)"><path d="M152 104 h96 a8 8 0 0 1 8 8 v58 a8 8 0 0 1 -8 8 h-96 a8 8 0 0 1 -8 -8 v-58 a8 8 0 0 1 8 -8 Z" fill="#FAF6EF" stroke="#6E6259" stroke-width="3"/><rect x="162" y="120" width="76" height="7" rx="3" fill="#DFD0BA"/><rect x="162" y="136" width="76" height="7" rx="3" fill="#DFD0BA"/><rect x="162" y="152" width="76" height="7" rx="3" fill="#DFD0BA"/><path d="M138 176 h124 a7 7 0 0 1 7 7 v10 a7 7 0 0 1 -7 7 h-124 a7 7 0 0 1 -7 -7 v-10 a7 7 0 0 1 7 -7 Z" fill="#FAF6EF" stroke="#6E6259" stroke-width="3"/><path d="M146 200 l-8 32" stroke="#6E6259" stroke-width="9" stroke-linecap="round" fill="none"/><path d="M254 200 l8 32" stroke="#6E6259" stroke-width="9" stroke-linecap="round" fill="none"/><path d="M160 214 h80" stroke="#6E6259" stroke-width="6" stroke-linecap="round" fill="none"/></g>
</svg>
