<svg xmlns="http://www.w3.org/2000/svg" width="600" height="600" viewBox="0 0 300 300" role="img" aria-label="Study and office">
<rect width="300" height="300" fill="#EDE3D4"/>
<rect x="0" y="232" width="300" height="68" rx="0" fill="#FAF6EF"/><ellipse cx="150" cy="238" rx="102.00000000000001" ry="7" fill="#3E2A1E" opacity="0.10"/><g transform="translate(-50,0)"><rect x="96" y="148" width="176" height="12" rx="3" fill="#FAF6EF"/><rect x="96" y="160" width="176" height="8" rx="0" fill="#8A5A34"/><rect x="104" y="168" width="12" height="62" rx="2" fill="#6B4226"/><rect x="252" y="168" width="12" height="62" rx="2" fill="#6B4226"/><rect x="200" y="168" width="64" height="34" rx="2" fill="#6B4226"/><rect x="214" y="182" width="26" height="5" rx="2" fill="#C89B3C"/><rect x="276" y="116" width="8" height="60" rx="2" fill="#57351E"/><rect x="268" y="176" width="36" height="10" rx="2" fill="#6B4226"/><rect x="270" y="186" width="5" height="44" rx="1" fill="#57351E"/><rect x="298" y="186" width="5" height="44" rx="1" fill="#57351E"/><rect x="118" y="118" width="34" height="30" rx="2" fill="#C89B3C"/><rect x="156" y="126" width="22" height="22" rx="2" fill="#EDE3D4"/></g>
</svg>
