<svg xmlns="http://www.w3.org/2000/svg" width="800" height="600" viewBox="0 0 400 300" role="img" aria-label="Sheesham wood sofa set">
<rect width="400" height="300" fill="#EDE3D4"/>
<rect x="0" y="232" width="400" height="68" rx="0" fill="#FAF6EF"/><ellipse cx="200" cy="238" rx="136" ry="7" fill="#3E2A1E" opacity="0.10"/><g transform="translate(0,0)"><rect x="88" y="150" width="224" height="54" rx="8" fill="#6B4226"/><rect x="96" y="126" width="208" height="34" rx="8" fill="#EDE3D4"/><rect x="104" y="154" width="88" height="26" rx="6" fill="#FAF6EF"/><rect x="200" y="154" width="88" height="26" rx="6" fill="#FAF6EF"/><rect x="76" y="138" width="26" height="62" rx="8" fill="#57351E"/><rect x="298" y="138" width="26" height="62" rx="8" fill="#57351E"/><rect x="112" y="130" width="30" height="26" rx="4" fill="#C89B3C"/><rect x="258" y="130" width="30" height="26" rx="4" fill="#C89B3C"/><rect x="96" y="200" width="12" height="24" rx="2" fill="#57351E"/><rect x="292" y="200" width="12" height="24" rx="2" fill="#57351E"/></g>
</svg>
